<?xml version="1.0" encoding="UTF-8" standalone="no"?>
<!-- Created with Inkscape (http://www.inkscape.org/) -->

<svg
   width="210mm"
   height="297mm"
   viewBox="0 0 210 297"
   version="1.1"
   id="svg1"
   xml:space="preserve"
   inkscape:version="1.4 (e7c3feb100, 2024-10-09)"
   sodipodi:docname="design.svg"
   xmlns:inkscape="http://www.inkscape.org/namespaces/inkscape"
   xmlns:sodipodi="http://sodipodi.sourceforge.net/DTD/sodipodi-0.dtd"
   xmlns:xlink="http://www.w3.org/1999/xlink"
   xmlns="http://www.w3.org/2000/svg"
   xmlns:svg="http://www.w3.org/2000/svg"><sodipodi:namedview
     id="namedview1"
     pagecolor="#505050"
     bordercolor="#eeeeee"
     borderopacity="1"
     inkscape:showpageshadow="0"
     inkscape:pageopacity="0"
     inkscape:pagecheckerboard="0"
     inkscape:deskcolor="#505050"
     inkscape:document-units="mm"
     showguides="false"
     inkscape:zoom="0.70837342"
     inkscape:cx="232.22215"
     inkscape:cy="532.20517"
     inkscape:window-width="1920"
     inkscape:window-height="1053"
     inkscape:window-x="0"
     inkscape:window-y="0"
     inkscape:window-maximized="0"
     inkscape:current-layer="layer1" /><defs
     id="defs1"><linearGradient
       id="linearGradient1"
       inkscape:collect="always"><stop
         style="stop-color:#0062f4;stop-opacity:1;"
         offset="0"
         id="stop1" /><stop
         style="stop-color:#e55814;stop-opacity:1;"
         offset="1"
         id="stop2" /></linearGradient><radialGradient
       id="_Radial1"
       cx="0"
       cy="0"
       r="1"
       gradientUnits="userSpaceOnUse"
       gradientTransform="matrix(47.776,0,0,-47.776,85.227,32.138)"><stop
         offset="0"
         style="stop-color:rgb(0,174,255);stop-opacity:1"
         id="stop5" /><stop
         offset="0.07"
         style="stop-color:rgb(0,174,255);stop-opacity:1"
         id="stop6" /><stop
         offset="0.13"
         style="stop-color:rgb(0,165,247);stop-opacity:1"
         id="stop7" /><stop
         offset="0.35"
         style="stop-color:rgb(0,141,224);stop-opacity:1"
         id="stop8" /><stop
         offset="0.62"
         style="stop-color:rgb(0,101,186);stop-opacity:1"
         id="stop9" /><stop
         offset="0.93"
         style="stop-color:rgb(0,47,135);stop-opacity:1"
         id="stop10" /><stop
         offset="1"
         style="stop-color:rgb(0,33,122);stop-opacity:1"
         id="stop11" /></radialGradient><linearGradient
       id="_Linear2"
       x1="0"
       y1="0"
       x2="1"
       y2="0"
       gradientUnits="userSpaceOnUse"
       gradientTransform="matrix(37.963,0,0,37.963,92.8,30.85)"><stop
         offset="0"
         style="stop-color:white;stop-opacity:1"
         id="stop12" /><stop
         offset="1"
         style="stop-color:white;stop-opacity:0"
         id="stop13" /></linearGradient><radialGradient
       id="_Radial3"
       cx="0"
       cy="0"
       r="1"
       gradientUnits="userSpaceOnUse"
       gradientTransform="matrix(8.286,0,0,-8.286,83.729,29.801)"><stop
         offset="0"
         style="stop-color:white;stop-opacity:1"
         id="stop14" /><stop
         offset="0.68"
         style="stop-color:rgb(122,122,122);stop-opacity:1"
         id="stop15" /><stop
         offset="1"
         style="stop-color:rgb(64,64,64);stop-opacity:1"
         id="stop16" /></radialGradient><linearGradient
       inkscape:collect="always"
       xlink:href="#linearGradient1"
       id="linearGradient2"
       x1="0"
       y1="14"
       x2="210"
       y2="14"
       gradientUnits="userSpaceOnUse"
       gradientTransform="scale(1,0.85714286)" /></defs><g
     inkscape:label="Layer 1"
     inkscape:groupmode="layer"
     id="layer1"><rect
       style="fill:url(#linearGradient2);stroke-width:0.349977;stroke-linecap:round;stroke-linejoin:bevel"
       id="rect1"
       width="210"
       height="24"
       x="0"
       y="0" /><g
       style="clip-rule:evenodd;fill-rule:evenodd;stroke-linejoin:round;stroke-miterlimit:2"
       id="g1"
       transform="matrix(0.00824735,0,0,0.00824735,8.0000157,3.6197674)"><g
         id="Symbol_2_"
         transform="matrix(36.2087,0,0,35.6621,-2773.51,-805.908)">
        <g
   id="path9"
   transform="translate(-0.102163,0.191235)">
            <path
   d="m 133.1,32.4 -0.1,-1.1 -1,-0.7 c -4.2,-2.9 -12.2,-6.3 -26.5,-6.3 -5.4,0 -10.3,0.5 -14.6,1.5 -1.5,-1.3 -3.5,-2.1 -5.6,-2.1 -4.7,0 -8.6,3.8 -8.6,8.6 0,1.5 0.4,2.9 1.1,4.2 0.2,7.4 2.5,15.1 7,22.9 7.4,12.5 15.3,16.2 19.1,17.9 0.3,0.1 0.5,0.2 0.7,0.3 l 1,0.5 1,-0.5 c 0.2,-0.1 0.5,-0.2 0.7,-0.3 3.9,-1.7 11.7,-5.4 18.9,-17.9 7.9,-13.7 7.2,-23.7 6.9,-27 z"
   style="fill:#ffffff;fill-rule:nonzero"
   id="path1" />
        </g>
        <g
   id="path24"
   transform="translate(-0.16076,0.295187)">
            <path
   d="m 103.3,43.2 c 0,0 1.3,0.1 2.4,1.5 l -0.6,0.1 -0.3,-0.1 c 0,0 -0.9,-1.1 -1.5,-1.5 z m -2,6.2 -0.6,-1.5 h -0.2 l -1,1.2 c 0.7,0.6 1.8,0.3 1.8,0.3 z m 9.2,-8.8 -0.5,0.2 0.6,1.1 2,0.7 c -0.8,-1.7 -2.1,-2 -2.1,-2 z m -5.7,2.1 c 0.6,0.7 1.2,1.7 1.2,1.7 1,-1 3.1,-1.4 5.8,-1.3 -3.8,-0.8 -7,-0.4 -7,-0.4 z m -3.7,-1.5 c 0,0 1.1,0 2.6,0.3 -1,-0.7 -2.6,-1.1 -2.6,-1.1 z m 9.2,5.5 -1.7,1.5 1.3,0.4 1.3,-1.4 -0.7,-0.3 z M 99,38.8 c 0,0 0.7,0.4 0.8,0.4 0.1,0 1.5,0.5 2.1,0.7 0.5,0.2 0.8,0 0.9,0 0.1,0 1.8,-1 1.8,-1 -1.5,-0.6 -2.9,-1 -2.9,-1 -0.1,0 -2.7,0.9 -2.7,0.9 z m 10.2,0.9 c -0.1,-0.2 -0.3,-0.2 -1.5,-0.4 -1.1,-0.1 -2.1,-0.2 -2.3,-0.2 -0.2,0 -0.3,0.1 -0.3,0.1 0,0 -0.6,0.4 -1.1,0.7 -0.5,0.3 -0.6,0.4 -0.7,0.6 -0.1,0.1 0.2,0.5 0.2,0.5 l 0.8,1 c 0.1,0 0.4,0.2 0.4,0.2 0,0 1.6,-0.1 2.6,-0.2 h 2.6 c 0.1,0 0,-0.4 -0.2,-0.9 -0.2,-0.4 -0.5,-1.4 -0.5,-1.4 z m -9.5,1.1 c 0,0 0.1,0 0.3,0.1 0.2,0 0.3,-0.2 0.3,-0.4 0,-0.3 -0.3,-0.4 -0.3,-0.4 h -0.2 l -0.3,0.1 -0.1,0.7 h 0.1 l 0.2,-0.1 c -0.1,-0.2 -0.1,-0.3 -0.1,-0.5 0,-0.1 0.2,-0.3 0.3,-0.3 0,0 0.2,0 0.1,0.4 0,0.4 -0.3,0.4 -0.3,0.4 z m 16.9,7.9 -0.8,1.1 v 0.1 h 1.1 c 0.2,-0.7 -0.3,-1.2 -0.3,-1.2 z m -20,-5.2 h -0.2 l -0.5,-0.1 c -0.5,-0.1 -0.3,-1 -0.3,-1 L 95,42.6 c -0.2,-0.4 -1.1,-1.5 -1.1,-1.5 l -0.2,0.8 c 0.1,0.1 0.6,0.9 0.7,1.1 l -0.3,0.3 c 0,0 -0.1,0.2 -0.1,0.3 0,0.1 -0.1,0.2 -0.1,0.2 L 93.5,44 H 93.4 L 92,42.9 v 0.8 h 0.1 c 0.1,0.2 0.3,0.6 0.8,0.8 0.4,0.2 0.9,0.2 1.1,0.1 0.2,0.1 0.3,0.1 0.4,0.2 0.4,0.2 0.5,0.1 0.5,0.1 l 0.6,-0.2 h 0.1 l 0.1,-0.1 0.2,-0.4 c 0,0 1,0.1 1.4,0.1 0.4,-0.6 1.7,-1.5 2.6,-1.6 0.9,0 2.4,0.2 3.6,1.4 1.1,1.2 0.8,2.8 0.8,2.8 l 2.2,0.7 -1,-0.7 c -0.8,-2 -2.7,-3.8 -2.7,-3.8 0,0 -0.5,-0.1 -0.8,-0.1 -0.3,-0.1 -0.5,-0.3 -0.5,-0.3 0,0 -0.1,-0.1 -0.3,-0.4 L 101,41.9 c 0,0 -0.2,-0.2 -0.5,-0.4 -0.3,-0.2 -1.4,-0.3 -2,-0.4 -0.6,-0.1 -0.6,0 -0.6,0 1.7,0.4 2.2,0.5 2.3,0.6 0,0 0.1,0.2 0.2,0.3 -1.4,-0.3 -2.7,-0.1 -3,0 0.2,0.3 0.2,0.7 0,1 -0.2,0.2 -0.8,0.5 -0.8,0.5 z m 19,7.2 0.3,1.3 c 0,0 0.3,-0.3 0.6,-0.7 0.3,-0.4 0.4,-0.8 0.4,-0.8 l -1.2,0.1 z M 91.5,41.6 91.4,42.7 H 92 L 92.1,42 v 0.4 h 0.1 v -0.6 h -0.1 v -0.4 l 0.9,0.5 0.1,0.2 0.2,0.2 h 0.2 l 0.1,-0.1 V 42.1 C 93,42.1 93,41.8 93,41.8 c 0,0 0.1,-0.7 0.2,-0.9 0.1,-0.2 0.5,-0.1 0.5,-0.1 l -0.1,-0.1 h -0.2 c -0.2,-0.1 -0.8,-0.5 -1,-0.6 V 40 l 0.1,-0.1 v -0.4 h 0.1 c 0,-0.1 0.1,-0.1 0.1,-0.2 0.2,0 1.7,-0.3 1.7,-0.3 L 93,38.7 v -0.1 c -0.4,-0.1 -0.7,-0.2 -0.9,-0.3 -0.5,0.6 -0.7,1.4 -0.7,1.4 0,0 -0.1,1.4 -0.1,1.6 -0.1,0.2 0.2,0.3 0.2,0.3 z m 23.5,7.9 0.2,0.3 0.1,-0.1 0.8,-1 v -0.1 c -0.4,0 -1.1,0.9 -1.1,0.9 z m -2.4,-1.8 -0.6,-0.2 -1.4,1.6 1,0.3 c 0.2,-0.8 1,-1.7 1,-1.7 z m 2.1,2.3 c -0.5,1 -0.4,1.7 -0.4,1.7 l 0.5,-1.1 v -0.2 c 0.1,0 0,-0.2 -0.1,-0.4 z m -0.5,-6.5 c 0,0 -0.2,0.4 -0.3,0.5 -0.1,0.1 -0.8,0.2 -1.2,0.3 -0.4,0.2 -1.1,0.5 -1.3,0.7 -0.1,0.1 -0.1,0.4 -0.1,0.5 0,0 0.2,0.1 0.3,0.1 l -0.9,0.8 0.2,0.2 2.2,0.7 c 0.5,-0.4 1.2,-0.5 1.2,-0.5 -0.4,-0.2 -2.1,-0.9 -2.6,-1.1 0,0 -0.3,-0.1 -0.3,-0.2 v -0.3 c 0,0 1.3,-1 3.3,-1 l 0.3,-0.6 z m 1.3,8.8 -0.4,-1.2 H 115 l -0.6,1.1 0.1,0.1 c 0.5,0.2 1,0 1,0 z m -15.1,-11.4 0.3,0.1 c 0,0 0.2,0 0.2,-0.2 v -0.4 l -0.3,-0.2 -0.4,-0.1 c 0.1,0.1 0.1,0.2 0.1,0.2 h 0.1 c 0,-0.1 0.1,-0.1 0.1,0 0,0 0.2,0.1 0.1,0.4 0.1,0.1 -0.1,0.2 -0.2,0.2 z m -0.9,5.5 c -0.7,1.3 -0.2,2.2 -0.2,2.2 l 0.9,-1.3 V 47.1 Z M 93,38.7 94.2,39 c 0.1,0 0.8,-0.1 0.8,-0.1 l -1.9,-0.5 z m 0.7,-0.3 c 1.6,0.2 1.9,0.5 1.9,0.5 0,0 0.6,-0.1 0.9,-0.1 -0.5,-0.4 -2.7,-1.1 -2.7,-1.1 0,0 -0.1,0.3 -0.1,0.7 z m 2.4,3.1 c -0.3,0.2 -0.6,0.8 -0.5,1.3 0.1,0.5 0.2,0.5 0.5,0.5 -0.5,-0.2 -0.4,-1 0,-1.5 0.3,-0.4 0.6,-0.1 0.6,-0.1 0,0 -0.3,-0.4 -0.6,-0.2 z M 89,56.3 c -1.3,0 -2.8,0.5 -1.9,1.9 7.4,12.7 15.2,15.7 18.5,17.3 1.5,-0.7 3.9,-1.8 6.8,-3.8 1.7,-1.1 1.5,-2.8 1.1,-3.9 C 111.4,62.6 99.9,56.7 89,56.3 Z m 41.7,-23.7 c -3,-2.1 -10.4,-5.9 -25.1,-5.9 -5.1,0 -9.4,0.5 -12.8,1.2 0.8,1.3 1.2,2.8 1.2,4.4 0,2.2 -0.8,4.2 -2.1,5.7 0.3,0.1 0.7,0.2 1.2,0.3 l 0.2,-0.5 c 0,0 0.2,0 0.3,0.1 0,-0.5 0.3,-0.5 0.3,-0.5 0,0 0,-0.1 0.1,-0.1 0.5,0.1 1.9,0.8 2.5,1.1 0.6,0.3 0.6,0.4 0.6,0.4 0,0 1.4,0 1.8,-0.1 0.4,0 1.1,-0.3 2.1,-0.6 1,-0.3 1.2,-0.4 1.4,-0.4 0.2,0 2,0.1 3.6,0.3 1.6,0.2 3.1,0.8 3.4,1 l 0.5,0.1 0.1,-0.3 -0.8,-0.3 c 0,0 0.1,-0.5 0.1,-0.6 0,-0.1 0.1,-0.2 0.2,-0.2 0.1,0 1,0.2 1.3,0.3 0.3,0.1 1.3,0.8 1.4,0.8 0.1,0 0.1,0.1 0.1,0.1 0,0.2 -0.2,0.6 -0.2,0.6 l -0.3,-0.1 0.3,0.1 c 0,0 0.3,0.1 0.4,0.2 0.1,0.1 0.4,0.3 0.7,0.6 0.3,0.2 0.2,0.5 0.2,0.5 l 0.7,0.7 v 0.3 l 1.7,1.7 v 0.1 l -0.8,0.5 c 0,0 1.1,-0.1 1.9,0.3 0.8,0.4 0.9,0.6 0.9,0.8 -0.2,0.1 -0.5,0.2 -0.5,0.2 -0.6,0.2 -2.1,1.2 -2.1,1.2 v 0.1 l 0.8,0.2 c 0.9,-0.8 2.5,-1.1 3.7,-0.9 4.1,0.8 6.9,3.5 7.5,5.8 0,0.1 0.1,0.3 0.1,0.4 4.1,-9.6 3.7,-16.5 3.4,-19.6 z m -14.4,14.6 c 0.1,0.1 0.2,0.1 0.3,0.2 0.6,0.4 0.9,0.6 1,1.5 0.1,0.7 -0.1,1.7 -0.6,2.6 2.8,1.9 6.7,0.4 8.2,1.9 -0.3,-3.8 -5.9,-7.6 -8.9,-6.2 z m -23,-4.9 -0.2,0.1 v 0.8 l 0.2,-0.1 z m 28.9,12.4 c -2.1,0 -4.2,-0.7 -5.7,-2.5 v 0.1 c -0.9,1.2 -1.9,1.2 -2.3,1.2 -0.4,0 -1.7,-0.6 -2.2,-1.2 -0.5,-0.6 -0.5,-1.7 -0.5,-1.7 l -2,-0.7 -2.5,-1.4 -0.4,-0.1 c -0.8,0.4 -1.8,0.1 -2.7,-0.6 -0.1,0.4 -0.6,1.4 -1.2,1.9 -0.6,0.5 -1.8,1.2 -2.7,1.2 -0.9,0 -2.9,-1 -3.5,-2.4 -0.6,-1.4 0,-2.9 0,-2.9 l -1,-0.2 -0.4,-0.5 c 0,0 -1.2,1 -2.5,0.6 C 91.3,45.1 90.2,44 89.9,43 89.7,42 90,41.1 90.1,41 89.9,40.3 89.9,39.9 89.9,39.9 h -0.1 v -0.3 c -1.3,0.9 -2.8,1.3 -4.4,1.3 -1.8,0 -3.5,-0.6 -4.9,-1.5 0.2,2.2 0.8,4.8 1.6,7.7 1.1,4 4.7,5.3 10.1,6.2 11.9,1.9 23.3,11 22.5,16.6 3,-2.5 6.2,-6.2 9.4,-11.7 1.3,-2.1 0.1,-3.5 -1.9,-3.5 z M 90.4,40.9 90.3,42 H 91 V 41.9 H 90.9 V 41.8 H 90.8 L 90.9,41.6 91,41.1 90.9,41 v -0.2 l 0.1,-0.1 0.1,-1.2 -0.5,-0.3 c 0.2,-0.8 0.7,-1.5 0.7,-1.5 H 91 c -0.5,0.6 -0.7,1.4 -0.7,1.4 0,0 -0.1,1.3 -0.1,1.5 0,0.3 0.2,0.3 0.2,0.3 z m 11,6.7 0.5,1.6 c 1,-0.7 1.2,-1.8 1.2,-1.8 l -1.6,0.1 z m 0.9,-2.5 -0.8,1.4 0.1,0.1 1.6,0.1 c 0,-1.1 -0.9,-1.6 -0.9,-1.6 z m -10,-3.1 -0.1,0.6 h 0.1 z m 7.6,3.8 0.8,0.6 0.2,-0.1 0.9,-1.4 c -1.1,-0.1 -1.9,0.9 -1.9,0.9 z M 92.5,42.1 92.4,42 v 0.7 h 0.1 z m 0.3,0.2 -0.1,0.7 h 0.1 z m 0.2,0.1 -0.1,0.7 H 93 Z m -0.4,-0.2 -0.1,0.7 h 0.1 z"
   style="fill:url(#_Radial1);fill-rule:nonzero"
   id="path2" />
        </g>
        <g
   transform="matrix(0.0556703,0,0,0.0558023,73.4217,23.9952)"
   id="g3">
            <path
   d="m 618.023,483.314 40.259,29.876 -13.576,18.294 -16.487,-12.235 -12.864,17.334 14.681,10.895 -12.906,17.39 -14.68,-10.894 -28.493,38.396 -23.771,-17.641 z m 31.952,94.283 -21.4,-15.881 3.729,-5.025 c 4.302,-5.797 8.288,-9.771 11.956,-11.923 3.669,-2.151 8.411,-2.937 14.227,-2.357 5.815,0.58 11.942,3.258 18.378,8.035 7.717,5.726 12.52,11.406 14.41,17.041 1.89,5.634 1.756,10.73 -0.4,15.288 -2.157,4.558 -7.83,13.029 -17.021,25.413 l -27.906,37.605 -22.19,-16.467 4.955,-6.677 c -3.38,1.644 -6.667,2.318 -9.863,2.023 -3.195,-0.296 -6.317,-1.575 -9.367,-3.837 -3.99,-2.961 -6.819,-6.798 -8.489,-11.51 -1.669,-4.712 0.304,-10.851 5.918,-18.417 l 4.568,-6.154 c 4.162,-5.609 7.882,-8.773 11.159,-9.493 3.278,-0.72 9.423,0.163 18.436,2.648 9.67,2.623 15.145,3.622 16.426,2.997 1.282,-0.626 3.081,-2.501 5.4,-5.625 2.905,-3.915 4.506,-6.681 4.802,-8.3 0.297,-1.619 -0.233,-2.931 -1.588,-3.937 -1.543,-1.145 -2.873,-1.359 -3.99,-0.64 -1.116,0.718 -3.225,3.166 -6.326,7.344 z m -0.399,15.64 c -5.634,-0.037 -9.414,0.631 -11.338,2.005 -1.924,1.374 -4.143,3.755 -6.657,7.142 -2.878,3.878 -4.481,6.569 -4.811,8.076 -0.33,1.506 0.258,2.818 1.764,3.935 1.43,1.062 2.69,1.311 3.779,0.748 1.09,-0.564 3.031,-2.728 5.825,-6.492 z m 83.03,0.674 -5.518,6.61 c 3.699,-1.524 7.255,-2.087 10.666,-1.689 3.412,0.397 6.68,1.755 9.804,4.074 3.915,2.905 6.43,6.201 7.546,9.889 1.116,3.689 0.99,7.2 -0.375,10.535 -1.366,3.335 -4.48,8.278 -9.34,14.828 l -38.968,52.511 -22.811,-16.928 38.507,-51.89 c 3.827,-5.157 5.99,-8.426 6.489,-9.807 0.499,-1.38 -0.023,-2.643 -1.566,-3.789 -1.619,-1.201 -3.117,-1.306 -4.495,-0.314 -1.378,0.991 -4.162,4.31 -8.352,9.956 l -37.585,50.648 -22.811,-16.928 55.602,-74.927 z m -282.037,121.792 -25.202,-15.527 10.378,-16.845 c 3.018,-4.898 4.632,-8.121 4.841,-9.667 0.21,-1.547 -0.603,-2.886 -2.439,-4.017 -2.075,-1.279 -3.847,-1.352 -5.316,-0.219 -1.468,1.132 -3.714,4.153 -6.739,9.061 l -27.735,45.017 c -2.901,4.71 -4.515,7.955 -4.842,9.736 -0.326,1.781 0.488,3.273 2.444,4.478 1.876,1.156 3.547,1.192 5.013,0.108 1.465,-1.083 3.838,-4.286 7.116,-9.607 l 7.505,-12.182 25.203,15.528 -2.327,3.777 c -6.181,10.031 -11.272,16.709 -15.275,20.032 -4.002,3.324 -9.4,5.071 -16.194,5.241 -6.795,0.17 -13.744,-1.933 -20.847,-6.31 -7.383,-4.549 -12.646,-9.635 -15.787,-15.26 -3.142,-5.624 -4.034,-11.28 -2.677,-16.968 1.357,-5.689 4.962,-13.282 10.814,-22.78 l 17.445,-28.315 c 4.303,-6.984 7.769,-12.075 10.4,-15.272 2.63,-3.197 6.128,-5.68 10.494,-7.449 4.367,-1.77 9.227,-2.286 14.58,-1.547 5.354,0.738 10.765,2.791 16.232,6.16 7.423,4.573 12.665,9.782 15.726,15.627 3.061,5.845 4.03,11.377 2.907,16.595 -1.123,5.219 -4.472,12.351 -10.045,21.398 z m 59.226,-21.734 -59.712,96.918 -24.903,-15.343 59.712,-96.918 z m 53.284,56.944 -48.942,79.438 -24.604,-15.159 4.485,-6.341 c -3.326,1.646 -6.63,2.382 -9.909,2.21 -3.28,-0.173 -6.516,-1.243 -9.709,-3.21 -3.631,-2.237 -6.251,-4.732 -7.859,-7.485 -1.607,-2.752 -2.328,-5.536 -2.163,-8.352 0.166,-2.816 0.816,-5.457 1.951,-7.924 1.134,-2.467 3.804,-7.113 8.008,-13.937 l 33.009,-53.577 24.185,14.9 -33.304,54.056 c -3.811,6.186 -5.884,9.974 -6.218,11.365 -0.334,1.391 0.337,2.603 2.014,3.636 1.795,1.106 3.232,1.165 4.309,0.177 1.076,-0.988 3.619,-4.735 7.627,-11.24 l 32.935,-53.458 z m 43.634,2.768 -14.135,22.942 c 3.425,-1.09 6.715,-1.449 9.872,-1.077 3.157,0.372 6.172,1.444 9.045,3.214 3.313,2.041 5.866,4.33 7.662,6.868 1.795,2.537 2.753,5.137 2.874,7.8 0.122,2.662 -0.241,4.971 -1.088,6.927 -0.847,1.956 -3.078,5.867 -6.692,11.733 l -22.056,35.798 c -3.589,5.827 -6.652,9.927 -9.189,12.301 -2.536,2.374 -5.886,3.724 -10.051,4.049 -4.164,0.325 -8.221,-0.73 -12.172,-3.164 -2.834,-1.746 -5.096,-3.995 -6.787,-6.747 -1.69,-2.751 -2.789,-5.994 -3.297,-9.727 l -5.254,5.042 -22.628,-13.941 59.711,-96.918 z m -17.311,44.585 c 2.533,-4.111 3.927,-6.955 4.183,-8.531 0.255,-1.577 -0.375,-2.833 -1.892,-3.767 -1.476,-0.91 -2.772,-0.951 -3.887,-0.124 -1.115,0.827 -3.038,3.455 -5.767,7.885 l -21.096,34.242 c -2.631,4.27 -4.066,7.157 -4.305,8.662 -0.239,1.505 0.38,2.712 1.857,3.622 1.516,0.934 2.885,0.924 4.106,-0.031 1.222,-0.954 3.283,-3.786 6.184,-8.495 z"
   style="fill:#ffffff;fill-rule:nonzero"
   id="path3" />
        </g>
        <g
   id="path26"
   transform="translate(-0.16076,0.295187)">
            <path
   d="m 130.7,32.6 c 0.3,3.7 0.8,12.8 -6.6,25.6 -7.3,12.7 -15.2,15.7 -18.5,17.3 v -1.9 c 6.1,-3.3 11.4,-8.6 15.6,-17 4.9,-9.7 5.5,-17.6 5.1,-21.6 z"
   style="fill-opacity:0.5;fill-rule:nonzero"
   id="path4" />
        </g>
        <g
   id="path33"
   transform="translate(-0.16076,0.295187)">
            <path
   d="m 130.7,32.6 c -3,-2.1 -10.4,-5.9 -25.1,-5.9 -5.1,0 -9.4,0.5 -12.8,1.2 0.7,1.1 1.1,2.4 1.2,3.8 3.8,-0.7 7.9,-1.1 12.3,-1 9.4,0.1 17,2.2 20.1,4.3 l 4.3,-2.4"
   style="fill:url(#_Linear2);fill-rule:nonzero"
   id="path5" />
        </g>
        <g
   id="circle42"
   transform="translate(-0.16076,0.295187)">
            <circle
   cx="85.400002"
   cy="32.299999"
   r="6.1999998"
   style="fill:url(#_Radial3)"
   id="circle5" />
        </g>
    </g></g><rect
       style="fill:#d1dede;fill-opacity:1;stroke-width:0.401;stroke-linecap:round;stroke-linejoin:bevel"
       id="rect2"
       width="210"
       height="128"
       x="0"
       y="24" /></g></svg>
